<svg viewBox="0 0 800 432" xmlns="http://www.w3.org/2000/svg" preserveAspectRatio="xMidYMid slice" role="img" aria-label="Fibrin mesh with platelet aggregation representing blood coagulation">
  <rect width="800" height="432" fill="#FCE4DC"/>
  <path d="M 0 100 Q 250 250, 500 200 T 800 250 L 800 432 L 0 432 Z" fill="#F4C8C0" opacity="0.5"/>
  <g stroke="#A05050" stroke-width="6" stroke-linecap="round" fill="none">
    <line x1="80" y1="100" x2="350" y2="380"/>
    <line x1="250" y1="80" x2="120" y2="400"/>
    <line x1="400" y1="120" x2="600" y2="350"/>
    <line x1="550" y1="80" x2="400" y2="380"/>
    <line x1="650" y1="100" x2="780" y2="380"/>
    <line x1="200" y1="220" x2="500" y2="220"/>
    <line x1="100" y1="160" x2="700" y2="180"/>
  </g>
  <g stroke="#E0908A" stroke-width="3" stroke-linecap="round" fill="none">
    <line x1="180" y1="200" x2="380" y2="220"/>
    <line x1="450" y1="180" x2="650" y2="240"/>
    <line x1="100" y1="320" x2="300" y2="320"/>
    <line x1="500" y1="280" x2="700" y2="300"/>
    <line x1="180" y1="60" x2="350" y2="120"/>
  </g>
  <g fill="#A05050">
    <circle cx="200" cy="250" r="22"/>
    <circle cx="240" cy="220" r="14"/>
    <circle cx="450" cy="240" r="20"/>
    <circle cx="490" cy="280" r="16"/>
    <circle cx="630" cy="180" r="14"/>
    <circle cx="380" cy="160" r="12"/>
  </g>
  <g fill="#E0908A">
    <circle cx="180" cy="200" r="8"/>
    <circle cx="350" cy="280" r="9"/>
    <circle cx="700" cy="280" r="10"/>
    <circle cx="120" cy="350" r="7"/>
    <circle cx="560" cy="200" r="9"/>
  </g>
  <g fill="#732838">
    <circle cx="80" cy="80" r="4"/>
    <circle cx="720" cy="100" r="5"/>
    <circle cx="600" cy="380" r="4"/>
    <circle cx="380" cy="60" r="3"/>
    <circle cx="280" cy="60" r="4"/>
  </g>
</svg>
