<svg viewBox="0 0 800 432" xmlns="http://www.w3.org/2000/svg" preserveAspectRatio="xMidYMid slice" role="img" aria-label="Y-shaped antibodies clustered, representing immunology">
  <rect width="800" height="432" fill="#E8E5F0"/>
  <path d="M 0 280 Q 300 180, 500 250 T 800 280 L 800 432 L 0 432 Z" fill="#D8D0E0" opacity="0.6"/>
  <g transform="translate(400 230)" stroke="#7A6090" stroke-width="22" stroke-linecap="round" fill="none">
    <line x1="0" y1="0" x2="0" y2="105"/>
    <line x1="0" y1="0" x2="-55" y2="-75"/>
    <line x1="0" y1="0" x2="55" y2="-75"/>
  </g>
  <g fill="#4A3D6A">
    <circle cx="345" cy="155" r="15"/>
    <circle cx="455" cy="155" r="15"/>
    <circle cx="400" cy="335" r="13"/>
  </g>
  <g transform="translate(180 180)" stroke="#A8A0C8" stroke-width="11" stroke-linecap="round" fill="none">
    <line x1="0" y1="0" x2="0" y2="55"/>
    <line x1="0" y1="0" x2="-28" y2="-38"/>
    <line x1="0" y1="0" x2="28" y2="-38"/>
  </g>
  <g transform="translate(620 280) rotate(20)" stroke="#A8A0C8" stroke-width="11" stroke-linecap="round" fill="none">
    <line x1="0" y1="0" x2="0" y2="55"/>
    <line x1="0" y1="0" x2="-28" y2="-38"/>
    <line x1="0" y1="0" x2="28" y2="-38"/>
  </g>
  <g transform="translate(680 130) rotate(-30)" stroke="#7A6090" stroke-width="12" stroke-linecap="round" fill="none">
    <line x1="0" y1="0" x2="0" y2="60"/>
    <line x1="0" y1="0" x2="-30" y2="-42"/>
    <line x1="0" y1="0" x2="30" y2="-42"/>
  </g>
  <g transform="translate(120 340) rotate(15)" stroke="#A8A0C8" stroke-width="10" stroke-linecap="round" fill="none">
    <line x1="0" y1="0" x2="0" y2="50"/>
    <line x1="0" y1="0" x2="-25" y2="-35"/>
    <line x1="0" y1="0" x2="25" y2="-35"/>
  </g>
  <g transform="translate(280 360) rotate(-15)" stroke="#7A6090" stroke-width="9" stroke-linecap="round" fill="none">
    <line x1="0" y1="0" x2="0" y2="40"/>
    <line x1="0" y1="0" x2="-20" y2="-28"/>
    <line x1="0" y1="0" x2="20" y2="-28"/>
  </g>
  <g fill="#7A6090">
    <circle cx="80" cy="80" r="5"/>
    <circle cx="730" cy="380" r="5"/>
    <circle cx="280" cy="100" r="4"/>
    <circle cx="540" cy="100" r="4"/>
    <circle cx="60" cy="240" r="4"/>
  </g>
</svg>
