<svg viewBox="0 0 800 432" xmlns="http://www.w3.org/2000/svg" preserveAspectRatio="xMidYMid slice" role="img" aria-label="Paired kidney silhouettes with descending droplet motif representing filtration">
  <rect width="800" height="432" fill="#DCE4EE"/>
  <path d="M 0 240 Q 200 140, 400 200 T 800 240 L 800 432 L 0 432 Z" fill="#C8D4E2" opacity="0.6"/>
  <path d="M 250 130
           C 200 130, 170 170, 170 230
           C 170 300, 200 340, 250 340
           C 290 340, 310 320, 320 290
           C 305 280, 305 250, 320 240
           C 315 200, 315 170, 305 145
           C 290 132, 270 128, 250 130 Z"
        fill="#5570A5"/>
  <path d="M 240 170 C 215 170, 200 195, 205 230 C 210 270, 230 300, 260 300 C 255 280, 250 240, 260 210 C 255 185, 250 175, 240 170 Z"
        fill="#9BB0CC" opacity="0.55"/>
  <path d="M 470 100
           C 420 100, 390 140, 390 200
           C 390 270, 420 310, 470 310
           C 510 310, 530 290, 540 260
           C 525 250, 525 220, 540 210
           C 535 170, 535 140, 525 115
           C 510 102, 490 98, 470 100 Z"
        fill="#324B70"/>
  <path d="M 460 140 C 435 140, 420 165, 425 200 C 430 240, 450 270, 480 270 C 475 250, 470 210, 480 180 C 475 155, 470 145, 460 140 Z"
        fill="#5570A5" opacity="0.45"/>
  <g fill="#5570A5">
    <path d="M 640 130 C 625 150, 620 175, 645 175 C 670 175, 665 150, 650 130 C 648 125, 642 125, 640 130 Z"/>
    <path d="M 690 200 C 678 218, 674 240, 695 240 C 716 240, 712 218, 700 200 C 698 196, 692 196, 690 200 Z" opacity="0.85"/>
    <path d="M 660 260 C 648 278, 644 300, 665 300 C 686 300, 682 278, 670 260 C 668 256, 662 256, 660 260 Z" opacity="0.7"/>
    <path d="M 720 320 C 712 332, 710 350, 725 350 C 740 350, 738 332, 730 320 C 728 318, 722 318, 720 320 Z" opacity="0.55"/>
  </g>
  <g fill="#324B70">
    <circle cx="100" cy="80" r="5"/>
    <circle cx="730" cy="80" r="5"/>
    <circle cx="120" cy="380" r="4"/>
    <circle cx="380" cy="380" r="4"/>
    <circle cx="60" cy="220" r="4"/>
  </g>
</svg>
